<?xml version="1.0" encoding="utf-8"?>
<!-- Generator: Adobe Illustrator 23.0.0, SVG Export Plug-In . SVG Version: 6.00 Build 0)  -->
<svg version="1.1" id="Layer_1" xmlns="http://www.w3.org/2000/svg" xmlns:xlink="http://www.w3.org/1999/xlink" x="0px" y="0px"
	 viewBox="0 0 24 30" style="enable-background:new 0 0 24 30;" xml:space="preserve">
<style type="text/css">
	.st0{fill:#3D58A6;}
</style>
<path class="st0" d="M15.14,24.65v-3.54c0-0.75-0.22-1.13-0.65-1.13c-0.26,0-0.5,0.12-0.74,0.36v5.05c0.24,0.24,0.49,0.36,0.74,0.36
	C14.92,25.75,15.14,25.38,15.14,24.65L15.14,24.65z M19.29,21.89h1.49v-0.77c0-0.77-0.25-1.15-0.74-1.15s-0.74,0.38-0.74,1.15V21.89
	z M6.41,15.89v1.58H4.6v9.54H2.94v-9.54H1.18v-1.58H6.41L6.41,15.89z M10.94,18.74v8.28H9.43v-0.9c-0.59,0.68-1.16,1.02-1.71,1.02
	c-0.5,0-0.81-0.21-0.95-0.63c-0.09-0.24-0.14-0.65-0.14-1.22v-6.54h1.49v6.09c0,0.36,0.01,0.56,0.02,0.59
	c0.02,0.23,0.13,0.34,0.34,0.34c0.3,0,0.62-0.23,0.95-0.7v-6.32L10.94,18.74L10.94,18.74z M16.63,21.24v3.29
	c0,0.78-0.05,1.33-0.16,1.65c-0.18,0.63-0.58,0.95-1.2,0.95c-0.53,0-1.04-0.31-1.53-0.92v0.81h-1.51V15.89h1.51v3.63
	c0.48-0.6,0.99-0.9,1.53-0.9c0.62,0,1.02,0.32,1.2,0.95C16.57,19.89,16.63,20.44,16.63,21.24z M22.29,24.15v0.2
	c0,0.44-0.02,0.76-0.05,0.97c-0.05,0.33-0.16,0.63-0.34,0.9c-0.41,0.6-1.01,0.9-1.8,0.9c-0.78,0-1.39-0.29-1.83-0.86
	c-0.32-0.41-0.47-1.05-0.47-1.94v-2.91c0-0.89,0.15-1.53,0.45-1.94c0.44-0.57,1.04-0.86,1.8-0.86s1.35,0.29,1.76,0.86
	c0.32,0.42,0.47,1.07,0.47,1.94v1.71h-3v1.47c0,0.77,0.26,1.15,0.77,1.15c0.36,0,0.59-0.2,0.68-0.59c0-0.02,0-0.07,0.01-0.16
	c0.01-0.09,0.01-0.21,0.01-0.37v-0.48L22.29,24.15L22.29,24.15z M12.12,5.56v3.52c0,0.77-0.24,1.15-0.72,1.15
	c-0.48,0-0.72-0.38-0.72-1.15V5.56c0-0.78,0.24-1.17,0.72-1.17C11.88,4.39,12.12,4.78,12.12,5.56z M24.14,21.65
	c0-2.66-0.14-4.62-0.43-5.86c-0.15-0.66-0.47-1.21-0.97-1.66c-0.5-0.44-1.07-0.7-1.71-0.78c-2.05-0.23-5.14-0.34-9.29-0.34
	c-4.14,0-7.23,0.11-9.27,0.34c-0.66,0.08-1.24,0.33-1.73,0.78c-0.49,0.44-0.81,1-0.96,1.66c-0.3,1.31-0.45,3.26-0.45,5.86
	c0,2.65,0.15,4.6,0.45,5.86c0.15,0.65,0.47,1.2,0.96,1.65c0.49,0.45,1.06,0.71,1.7,0.79c2.06,0.23,5.16,0.34,9.29,0.34
	c4.14,0,7.23-0.11,9.29-0.34c0.65-0.08,1.21-0.34,1.7-0.79c0.49-0.45,0.81-1,0.96-1.65C23.99,26.25,24.14,24.29,24.14,21.65z
	 M7.11,6.96l2.03-6.68H7.45L6.3,4.68l-1.2-4.4H3.34l0.54,1.56c0,0,0.17,0.52,0.52,1.56c0.53,1.55,0.87,2.74,1.04,3.56v4.53h1.67
	L7.11,6.96L7.11,6.96z M13.63,8.79V5.86c0-0.87-0.16-1.53-0.47-1.96c-0.44-0.57-1.02-0.86-1.76-0.86c-0.77,0-1.35,0.29-1.76,0.86
	C9.32,4.33,9.16,4.98,9.16,5.86v2.93c0,0.87,0.16,1.53,0.47,1.96c0.41,0.57,0.99,0.86,1.76,0.86c0.74,0,1.32-0.29,1.76-0.86
	C13.47,10.35,13.63,9.69,13.63,8.79z M17.71,11.5h1.51V3.15h-1.51v6.38c-0.33,0.47-0.65,0.7-0.95,0.7c-0.23,0-0.35-0.12-0.36-0.36
	c-0.02-0.03-0.02-0.23-0.02-0.59V3.15h-1.51v6.61c0,0.56,0.05,0.97,0.14,1.24c0.17,0.41,0.49,0.61,0.97,0.61
	c0.54,0,1.12-0.34,1.74-1.02L17.71,11.5L17.71,11.5z"/>
</svg>
